<svg width="248" height="47" viewBox="0 0 248 47" fill="none" xmlns="http://www.w3.org/2000/svg">
<mask id="mask0_304_100" style="mask-type:alpha" maskUnits="userSpaceOnUse" x="4" y="0" width="240" height="39">
<g clip-path="url(#clip0_304_100)">
<path d="M31.9674 0.878913C24.2424 0.874913 16.1824 2.61491 8.04745 4.87191C7.01445 5.07991 6.00645 5.75591 5.47345 6.59191C4.98345 7.37991 4.80545 8.17091 4.65245 8.99991C3.86245 13.4279 3.95845 17.7759 4.12245 22.5939C4.15845 23.6969 4.32245 25.0039 4.83745 25.7989C5.37545 26.6019 6.29745 27.1119 7.39845 27.2789C8.80505 27.4852 10.2161 27.6603 11.6304 27.8039L11.3184 36.5019C11.2704 37.1939 11.6085 37.7689 12.0285 38.0999C12.4044 38.3859 12.8235 38.5129 13.2535 38.5449C14.1135 38.6099 15.1225 38.2419 15.6235 37.2879C17.8185 33.0639 19.1955 31.1989 21.9405 28.3929C29.0985 28.5689 35.3475 28.1709 42.4225 27.6479C44.9235 27.5829 46.6405 25.5379 47.0945 23.9049C48.4515 19.6729 48.6624 14.4489 48.8064 9.16791C48.8674 7.07491 48.1414 5.01991 46.8564 3.93391C45.6344 2.94291 44.1545 2.58391 42.7985 2.21591C39.0315 1.36291 35.2634 0.904913 31.9674 0.878913ZM42.2575 4.18891C43.6155 4.55791 44.8125 4.91291 45.5675 5.52591C46.8275 6.86491 46.7854 7.75591 46.7674 9.20091C46.6254 14.3229 46.3794 19.2939 45.2234 23.0609C44.7254 24.4659 43.8574 25.4659 42.2174 25.6169C35.0094 26.1499 28.7555 26.5619 21.5105 26.3559C21.3694 26.3514 21.2289 26.3759 21.0976 26.4278C20.9664 26.4798 20.8472 26.5581 20.7474 26.6579C17.7034 29.7319 16.1465 31.8679 13.8265 36.3339C13.7725 36.4359 13.6554 36.4979 13.5114 36.5089C13.4144 36.5039 13.3755 36.4289 13.3695 36.3609L13.6834 26.9289C13.7024 26.4199 13.2825 25.9339 12.7765 25.8789C11.0846 25.7173 9.3973 25.5106 7.71645 25.2589C6.99045 25.1479 6.72245 24.9489 6.52345 24.6529C6.17745 23.8279 6.18545 23.3179 6.15845 22.5249C5.99645 17.7499 5.91645 13.5769 6.64945 9.42491C6.71745 8.81091 6.94745 8.18291 7.19145 7.65791C7.59545 7.02591 8.21445 6.93291 8.83545 6.76091C16.7914 4.56391 24.5754 2.92091 31.9035 2.91591C35.4955 3.04591 39.2675 3.40591 42.2575 4.18891V4.18891ZM14.7785 12.2789C13.6825 13.5919 13.7914 15.3749 14.6384 16.5689C15.0804 17.1939 15.7704 17.6969 16.6104 17.8109C17.7014 17.9009 18.3935 17.4589 19.1405 16.9509C20.4935 15.7749 20.6305 13.7229 19.6014 12.2409C19.0774 11.4859 18.2395 11.0329 17.3835 11.0009C16.2115 11.0129 15.4155 11.5359 14.7785 12.2779V12.2789ZM26.6345 11.2069C25.5425 11.2419 24.6595 11.9979 24.1205 12.8139C23.5035 13.7469 23.1435 14.9149 23.6425 16.0599C24.6025 18.2629 27.9195 18.2359 29.2425 15.9969C29.8525 14.9649 29.6965 13.7919 29.2425 12.9409C28.7905 12.0909 28.1065 11.3979 27.1115 11.2389C26.9538 11.213 26.7941 11.2023 26.6345 11.2069V11.2069ZM36.2594 11.4139C35.9194 11.4059 35.5694 11.4379 35.2414 11.5249C33.9294 11.8749 32.8125 13.2289 32.9815 14.9619C33.0675 15.8339 33.4685 16.6839 34.1915 17.2699C34.9145 17.8549 35.9644 18.1169 37.0714 17.8899C38.3434 17.6299 39.1315 16.6049 39.3945 15.6149C39.6575 14.6249 39.5914 13.6159 38.9804 12.7979C38.6625 12.3752 38.2522 12.0307 37.7808 11.7908C37.3093 11.551 36.7893 11.422 36.2604 11.4139H36.2594ZM17.2944 13.0369C17.5394 13.0389 17.7324 13.1169 17.9314 13.4029C18.3764 14.0449 18.2525 15.0179 17.8035 15.4079C17.3565 15.7979 17.0774 15.8319 16.8814 15.8059C16.6854 15.7789 16.4864 15.6439 16.3084 15.3919C15.9684 14.9119 15.8684 14.1359 16.3154 13.5819C16.5534 13.2659 16.9905 13.0689 17.2955 13.0369H17.2944ZM26.7775 13.2599C26.8155 13.2659 27.2414 13.5129 27.4454 13.8959C27.6494 14.2789 27.6875 14.6349 27.4935 14.9619C26.9165 15.9379 25.6895 15.6739 25.5035 15.2489C25.4335 15.0869 25.4865 14.4359 25.8235 13.9289C26.1585 13.4199 26.5805 13.2289 26.7775 13.2589V13.2599ZM37.3414 14.0079C37.4034 14.0909 37.5545 14.6479 37.4375 15.0899C37.3195 15.5319 37.1275 15.8049 36.6575 15.9009C36.0555 16.0249 35.7175 15.9009 35.4645 15.6939C35.2105 15.4889 35.0395 15.1419 35.0025 14.7709C34.9125 13.8509 35.2425 13.6379 35.7665 13.4979C36.3765 13.3479 37.0664 13.6099 37.3414 14.0079V14.0079Z" fill="#FF52C1"/>
<path d="M61.6104 4.99601C61.6264 4.73601 61.7214 4.50201 61.8974 4.29501C61.983 4.19353 62.0906 4.11288 62.2121 4.05917C62.3336 4.00546 62.4656 3.9801 62.5984 3.98501H69.4244C69.6544 3.98501 69.8914 4.08101 70.1364 4.27201C70.2512 4.35444 70.3445 4.46321 70.4085 4.58919C70.4726 4.71518 70.5054 4.85469 70.5043 4.99601V15.889H81.9254V4.99601C81.9254 4.72001 82.0213 4.48301 82.2123 4.28401C82.4043 4.08401 82.6524 3.98401 82.9594 3.98401H89.6934C89.9994 3.98401 90.2674 4.06101 90.4974 4.21401C90.7274 4.36801 90.8424 4.61301 90.8424 4.95001V37.1C90.8424 37.437 90.7424 37.69 90.5424 37.858C90.3444 38.027 90.0834 38.111 89.7624 38.111H82.9594C82.6534 38.111 82.4043 38.027 82.2123 37.858C82.0213 37.69 81.9254 37.438 81.9254 37.1V24.047H70.5043V37.1C70.5043 37.422 70.4004 37.67 70.1944 37.847C69.9874 38.023 69.7073 38.111 69.3543 38.111H62.5984C61.9554 38.111 61.6264 37.812 61.6104 37.215V4.99601ZM124.485 37.721C124.286 37.889 124.075 37.996 123.853 38.042C123.646 38.0867 123.435 38.1102 123.222 38.112H119.752C119.476 38.112 119.238 38.062 119.039 37.962C118.839 37.862 118.671 37.728 118.533 37.56C118.392 37.3855 118.276 37.1919 118.189 36.985C118.097 36.7688 118.02 36.5463 117.959 36.319L117.247 33.377C117.017 33.852 116.684 34.392 116.247 34.997C115.775 35.6391 115.214 36.2113 114.581 36.697C113.907 37.227 113.102 37.671 112.168 38.031C111.233 38.391 110.161 38.571 108.95 38.571C107.204 38.571 105.618 38.234 104.193 37.56C102.798 36.9082 101.557 35.9682 100.551 34.802C99.5484 33.638 98.7704 32.278 98.2194 30.722C97.6674 29.168 97.3913 27.509 97.3913 25.748V10.695C97.3913 10.113 97.5184 9.67301 97.7714 9.37401C98.0234 9.07501 98.4253 8.92601 98.9773 8.92601H104.285C104.945 8.92601 105.396 9.03601 105.641 9.25901C105.886 9.48101 106.009 9.91401 106.009 10.557V25.517C106.009 26.177 106.159 26.801 106.457 27.391C106.756 27.981 107.15 28.501 107.641 28.953C108.131 29.405 108.686 29.762 109.307 30.022C109.927 30.282 110.559 30.412 111.203 30.412C111.754 30.412 112.325 30.282 112.915 30.022C113.509 29.7587 114.059 29.4059 114.546 28.976C115.044 28.54 115.454 28.026 115.776 27.436C116.098 26.846 116.258 26.222 116.258 25.564V10.626C116.258 10.366 116.308 10.106 116.408 9.84501C116.508 9.58501 116.657 9.38501 116.856 9.24701C117.055 9.12501 117.243 9.04101 117.419 8.99501C117.595 8.94901 117.799 8.92501 118.028 8.92501H123.222C123.88 8.92501 124.355 9.08701 124.646 9.40801C124.937 9.73001 125.083 10.159 125.083 10.695V36.411C125.083 36.701 125.018 36.97 124.888 37.215C124.758 37.46 124.578 37.652 124.348 37.789L124.485 37.721V37.721ZM151.166 34.549C150.752 34.963 150.296 35.407 149.799 35.882C149.301 36.357 148.753 36.802 148.156 37.215C147.555 37.6306 146.908 37.974 146.226 38.238C145.515 38.5102 144.758 38.6465 143.996 38.64C141.913 38.64 139.994 38.25 138.239 37.468C136.529 36.7173 134.988 35.6266 133.712 34.262C132.448 32.906 131.46 31.309 130.748 29.47C130.035 27.632 129.679 25.656 129.679 23.541C129.679 21.411 130.035 19.431 130.748 17.601C131.46 15.771 132.448 14.177 133.712 12.821C134.987 11.4578 136.528 10.3707 138.239 9.62701C139.994 8.85301 141.913 8.46601 143.996 8.46601C144.839 8.46601 145.609 8.58901 146.306 8.83401C146.979 9.06703 147.62 9.3835 148.213 9.77601C148.788 10.159 149.316 10.592 149.799 11.074C150.281 11.557 150.737 12.028 151.166 12.488V1.98501C151.166 1.49501 151.316 1.08201 151.614 0.745014C151.913 0.407014 152.361 0.239014 152.959 0.239014H158.129C158.329 0.239014 158.539 0.281014 158.761 0.365014C158.983 0.450014 159.186 0.568014 159.371 0.722014C159.554 0.875014 159.703 1.05901 159.818 1.27301C159.933 1.48801 159.991 1.72501 159.991 1.98501V36.342C159.991 37.522 159.371 38.112 158.129 38.112H153.625C153.319 38.112 153.081 38.072 152.913 37.996C152.746 37.9211 152.6 37.8069 152.487 37.663C152.359 37.4944 152.255 37.309 152.177 37.112C152.069 36.8526 151.954 36.5958 151.833 36.342L151.166 34.549V34.549ZM137.952 23.541C137.945 24.5074 138.104 25.4679 138.423 26.38C138.737 27.26 139.185 28.023 139.768 28.666C140.357 29.3141 141.072 29.8342 141.87 30.194C142.69 30.57 143.598 30.757 144.594 30.757C145.574 30.757 146.497 30.581 147.363 30.229C148.204 29.8921 148.973 29.3964 149.626 28.769C150.276 28.1407 150.802 27.3966 151.178 26.575C151.568 25.732 151.787 24.828 151.833 23.863V23.541C151.837 22.5793 151.649 21.6266 151.281 20.738C150.925 19.8669 150.407 19.0715 149.753 18.394C149.098 17.7173 148.318 17.1749 147.455 16.797C146.554 16.402 145.579 16.2023 144.594 16.211C143.598 16.211 142.69 16.406 141.87 16.797C141.05 17.187 140.35 17.72 139.768 18.394C139.177 19.0839 138.721 19.8792 138.423 20.738C138.108 21.6386 137.949 22.5867 137.953 23.541H137.952ZM186.672 34.549C186.258 34.963 185.802 35.407 185.304 35.882C184.806 36.357 184.258 36.802 183.661 37.215C183.06 37.6306 182.413 37.974 181.731 38.238C181.02 38.5102 180.263 38.6465 179.501 38.64C177.418 38.64 175.499 38.25 173.745 37.468C172.034 36.7175 170.494 35.6267 169.217 34.262C167.954 32.906 166.965 31.309 166.253 29.47C165.541 27.632 165.184 25.656 165.184 23.541C165.184 21.411 165.541 19.431 166.253 17.601C166.965 15.771 167.953 14.177 169.217 12.821C170.492 11.4576 172.033 10.3705 173.745 9.62701C175.499 8.85301 177.418 8.46601 179.501 8.46601C180.344 8.46601 181.114 8.58901 181.811 8.83401C182.484 9.06703 183.125 9.3835 183.718 9.77601C184.293 10.159 184.821 10.592 185.304 11.074C185.787 11.557 186.242 12.028 186.671 12.488V1.98501C186.671 1.49501 186.821 1.08201 187.119 0.745014C187.419 0.407014 187.866 0.239014 188.464 0.239014H193.634C193.834 0.239014 194.044 0.281014 194.266 0.365014C194.489 0.450014 194.692 0.568014 194.876 0.722014C195.059 0.875014 195.209 1.05901 195.324 1.27301C195.438 1.48801 195.496 1.72501 195.496 1.98501V36.342C195.496 37.522 194.876 38.112 193.634 38.112H189.13C188.824 38.112 188.586 38.072 188.418 37.996C188.252 37.921 188.106 37.8067 187.993 37.663C187.865 37.4944 187.761 37.309 187.683 37.112C187.575 36.8526 187.46 36.5958 187.338 36.342L186.671 34.549H186.672ZM173.457 23.541C173.45 24.5074 173.609 25.4679 173.928 26.38C174.243 27.26 174.691 28.023 175.273 28.666C175.862 29.3142 176.578 29.8343 177.376 30.194C178.196 30.57 179.103 30.757 180.099 30.757C181.079 30.757 182.002 30.581 182.868 30.229C183.71 29.8922 184.478 29.3965 185.132 28.769C185.781 28.1405 186.307 27.3964 186.682 26.575C187.073 25.732 187.292 24.828 187.338 23.863V23.541C187.342 22.5793 187.154 21.6266 186.786 20.738C186.43 19.8669 185.912 19.0715 185.258 18.394C184.603 17.7173 183.823 17.1749 182.96 16.797C182.059 16.402 181.084 16.2023 180.099 16.211C179.103 16.211 178.195 16.406 177.376 16.797C176.556 17.187 175.855 17.72 175.273 18.394C174.682 19.0839 174.226 19.8792 173.928 20.738C173.613 21.6386 173.454 22.5867 173.458 23.541H173.457ZM201.61 2.00801C201.61 1.51801 201.732 1.10501 201.977 0.768014C202.223 0.430014 202.644 0.262014 203.241 0.262014H208.871C209.025 0.262014 209.186 0.304014 209.354 0.388014C209.531 0.478601 209.69 0.599426 209.825 0.745014C209.971 0.898014 210.093 1.08201 210.193 1.29601C210.293 1.51101 210.343 1.74801 210.343 2.00801V36.342C210.343 36.924 210.178 37.364 209.848 37.663C209.519 37.962 209.094 38.111 208.573 38.111H203.241C202.644 38.111 202.223 37.961 201.977 37.663C201.732 37.364 201.61 36.923 201.61 36.342V2.00801ZM240.31 34.618C238.978 35.8489 237.437 36.8332 235.76 37.525C234.062 38.2248 232.242 38.5803 230.405 38.571C228.305 38.571 226.322 38.188 224.453 37.421C222.627 36.6827 220.957 35.6027 219.535 34.239C218.119 32.8728 216.979 31.2456 216.18 29.447C215.352 27.609 214.939 25.61 214.939 23.449C214.939 22.101 215.103 20.795 215.433 19.531C215.752 18.2943 216.223 17.1019 216.835 15.981C217.441 14.8778 218.182 13.8548 219.041 12.936C219.899 12.0156 220.877 11.2154 221.948 10.557C223.039 9.89017 224.214 9.37224 225.441 9.01701C226.733 8.64455 228.072 8.459 229.416 8.46601C230.688 8.46601 231.921 8.63501 233.116 8.97201C234.311 9.30901 235.434 9.78401 236.483 10.396C237.533 11.009 238.493 11.745 239.367 12.603C240.229 13.4467 240.985 14.392 241.619 15.418C242.248 16.4366 242.739 17.5338 243.079 18.681C243.423 19.838 243.596 21.029 243.596 22.254C243.596 23.051 243.584 23.702 243.561 24.208C243.538 24.713 243.419 25.116 243.205 25.414C242.99 25.714 242.635 25.92 242.136 26.034C241.638 26.15 240.906 26.207 239.942 26.207H223.396C223.549 27.187 223.859 28.007 224.326 28.667C224.759 29.2917 225.309 29.826 225.946 30.24C226.559 30.631 227.21 30.91 227.9 31.08C228.539 31.2418 229.195 31.3264 229.853 31.332C230.405 31.332 230.971 31.274 231.553 31.16C232.127 31.0474 232.692 30.8937 233.243 30.7C233.759 30.5207 234.259 30.2976 234.736 30.033C235.188 29.781 235.552 29.516 235.828 29.241C236.073 29.041 236.284 28.892 236.46 28.792C236.636 28.692 236.824 28.643 237.023 28.643C237.223 28.643 237.425 28.713 237.633 28.85C237.885 29.0261 238.12 29.2261 238.333 29.447L240.769 32.205C240.937 32.405 241.045 32.585 241.091 32.745C241.137 32.906 241.16 33.071 241.16 33.239C241.16 33.546 241.075 33.81 240.907 34.032C240.738 34.2553 240.536 34.4527 240.309 34.618H240.31ZM229.256 15.475C228.658 15.475 228.08 15.594 227.521 15.831C226.954 16.0732 226.424 16.3944 225.946 16.785C225.456 17.183 225.016 17.635 224.625 18.141C224.252 18.6181 223.932 19.1345 223.671 19.681H235.414C235.106 19.1049 234.757 18.5517 234.369 18.026C234.001 17.5272 233.568 17.0791 233.082 16.693C232.586 16.3024 232.026 15.9994 231.427 15.797C230.807 15.582 230.083 15.475 229.256 15.475Z" fill="#00252E"/>
</g>
</mask>
<g mask="url(#mask0_304_100)">
<rect x="-68" y="-48" width="384" height="136" fill="white"/>
</g>
<defs>
<clipPath id="clip0_304_100">
<rect width="240" height="39" fill="white" transform="translate(4)"/>
</clipPath>
</defs>
</svg>
